<svg width="101" height="33" viewBox="0 0 101 33" fill="none" xmlns="http://www.w3.org/2000/svg">
<path d="M62.88 18.6533C62.8267 18.5644 62.8 18.4489 62.8 18.3067C62.8 18.1467 62.8267 18.0311 62.88 17.96C62.88 17.8711 62.9156 17.7822 62.9867 17.6933C63.0756 17.6044 63.1911 17.5422 63.3333 17.5067C63.4044 17.4533 63.4933 17.4267 63.6 17.4267C63.7778 17.4267 63.9022 17.4533 63.9733 17.5067C64.0622 17.5422 64.1778 17.5956 64.32 17.6667C64.3733 17.7378 64.4267 17.8356 64.48 17.96C64.5333 18.0311 64.56 18.1467 64.56 18.3067C64.56 18.4667 64.5333 18.5822 64.48 18.6533C64.4622 18.7244 64.4356 18.7778 64.4 18.8133C64.3644 18.8311 64.32 18.8756 64.2667 18.9467C64.2311 18.9822 64.1867 19.0178 64.1333 19.0533L63.9467 19.1333C63.9111 19.1689 63.8667 19.1867 63.8133 19.1867H63.68C63.4133 19.1867 63.2089 19.1244 63.0667 19C62.9422 18.8578 62.88 18.7422 62.88 18.6533ZM74.5389 10.8933C74.4322 10.8933 74.3789 10.9644 74.3789 11.1067V19H73.3922L68.5122 11.6933V18.0667C68.5122 18.1556 68.53 18.2356 68.5656 18.3067C68.6189 18.3422 68.6989 18.36 68.8056 18.36L69.4989 18.44V19H66.7256V18.44L67.4989 18.36C67.6056 18.36 67.6589 18.3422 67.6589 18.3067C67.73 18.1822 67.7656 18.1022 67.7656 18.0667V11.1067C67.7656 11.0889 67.73 11.0267 67.6589 10.92C67.6589 10.8489 67.6056 10.8133 67.4989 10.8133L66.7256 10.76V10.2267H69.2589V10.6L73.6322 17.1333V11.16C73.6322 11.0533 73.6145 10.9822 73.5789 10.9467C73.5434 10.9111 73.4634 10.8933 73.3389 10.8933L72.6456 10.8133V10.2267H75.4189V10.8133L74.6722 10.8933V10.8133C74.6367 10.8667 74.5922 10.8933 74.5389 10.8933ZM82.713 18.36C82.4463 18.5733 82.2063 18.7156 81.993 18.7867C81.7796 18.8578 81.6196 18.9111 81.513 18.9467C81.4063 18.9822 81.3085 19.0089 81.2196 19.0267C81.1307 19.0622 81.0241 19.0978 80.8996 19.1333C80.793 19.1689 80.6863 19.1867 80.5796 19.1867H80.2063C79.7796 19.1867 79.4419 19.1333 79.193 19.0267C78.5174 18.7422 78.0374 18.3778 77.753 17.9333C77.6641 17.7733 77.5485 17.5333 77.4063 17.2133C77.2641 16.8933 77.193 16.5378 77.193 16.1467C77.193 15.5956 77.273 15.0622 77.433 14.5467C77.6107 14.1556 77.8241 13.8 78.073 13.48C78.3752 13.1956 78.7041 12.9644 79.0596 12.7867C79.5752 12.6444 79.9574 12.5733 80.2063 12.5733C80.5796 12.5733 80.9796 12.6267 81.4063 12.7333C81.673 12.9289 81.9219 13.1333 82.153 13.3467C82.313 13.5778 82.4641 13.8533 82.6063 14.1733C82.6774 14.4578 82.713 14.8133 82.713 15.24V15.64H78.473C78.473 15.9067 78.5174 16.2356 78.6063 16.6267C78.6596 16.7511 78.7041 16.8933 78.7396 17.0533C78.793 17.1956 78.8552 17.3467 78.9263 17.5067C79.3352 18.0756 79.9219 18.36 80.6863 18.36H80.953C81.1485 18.36 81.4241 18.28 81.7796 18.12C81.8507 18.0667 81.9307 18.0222 82.0196 17.9867C82.1085 17.9511 82.1796 17.9067 82.233 17.8533C82.4641 17.7467 82.6241 17.6489 82.713 17.56V18.36ZM81.433 14.76C81.433 14.6356 81.4152 14.5289 81.3796 14.44C81.3619 14.3511 81.3352 14.2533 81.2996 14.1467C81.193 13.8267 81.0774 13.6222 80.953 13.5333C80.8463 13.4444 80.7574 13.3822 80.6863 13.3467C80.6152 13.2756 80.4374 13.24 80.153 13.24C79.6196 13.24 79.2552 13.4 79.0596 13.72C78.9707 13.7911 78.9085 13.88 78.873 13.9867C78.8374 14.0756 78.7752 14.1822 78.6863 14.3067C78.6685 14.4667 78.6152 14.7156 78.5263 15.0533H81.433V14.76ZM91.7868 19H90.8802L89.3335 14.12L87.5735 19H86.6402L85.0402 13.3467L84.2668 13.1867V12.68H87.1202V13.1867L86.5335 13.24C86.4979 13.24 86.4624 13.2578 86.4268 13.2933C86.409 13.3289 86.3824 13.3644 86.3468 13.4C86.3113 13.4178 86.2935 13.4711 86.2935 13.56L87.4135 17.6133L89.0668 12.68H90.0002L91.5202 17.6133L92.7468 13.56C92.7824 13.5244 92.7913 13.4978 92.7735 13.48C92.7557 13.4444 92.7468 13.4089 92.7468 13.3733C92.7113 13.3556 92.6757 13.3289 92.6402 13.2933C92.6224 13.2578 92.5957 13.24 92.5602 13.24L91.9202 13.1867V12.68H94.2402V13.1867L93.6268 13.3467L91.7868 19ZM99.8832 12.7867L100.203 12.8667V14.3867H99.4832L99.3498 13.48C99.2254 13.4267 99.0921 13.3822 98.9498 13.3467L98.6298 13.24C98.5587 13.2044 98.4521 13.1867 98.3098 13.1867C98.061 13.1867 97.8032 13.2667 97.5365 13.4267C97.3587 13.6578 97.2698 13.88 97.2698 14.0933C97.2698 14.2711 97.341 14.44 97.4832 14.6C97.661 14.7956 97.8565 14.9467 98.0698 15.0533C98.1943 15.16 98.3721 15.2578 98.6032 15.3467C98.8521 15.4356 99.0121 15.5156 99.0832 15.5867C99.1721 15.64 99.2698 15.6933 99.3765 15.7467C99.6076 15.8889 99.7676 16.0044 99.8565 16.0933L100.07 16.3333C100.248 16.4933 100.337 16.7511 100.337 17.1067V17.1333C100.337 17.4178 100.292 17.7111 100.203 18.0133C99.8654 18.5644 99.4298 18.9111 98.8965 19.0533C98.5765 19.1778 98.2298 19.24 97.8565 19.24L97.2698 19.1867C97.1454 19.1511 97.0387 19.1244 96.9498 19.1067C96.8787 19.1067 96.8076 19.0889 96.7365 19.0533C96.6654 19.0178 96.5943 19 96.5232 19C96.4521 19 96.3721 18.9822 96.2832 18.9467C96.2121 18.9467 96.1143 18.9022 95.9898 18.8133V17.1067H96.7098L96.8698 18.2533C96.9232 18.2889 96.9854 18.3244 97.0565 18.36C97.1454 18.3778 97.2343 18.4133 97.3232 18.4667C97.5365 18.5911 97.7676 18.6356 98.0165 18.6C98.4965 18.5644 98.8698 18.3511 99.1365 17.96C99.1543 17.8889 99.1632 17.7822 99.1632 17.64C99.1632 17.3378 99.1365 17.1511 99.0832 17.08C99.0298 17.0089 98.9765 16.9467 98.9232 16.8933C98.8698 16.84 98.8254 16.7867 98.7898 16.7333L98.5498 16.6C98.461 16.5644 98.3632 16.52 98.2565 16.4667C98.1676 16.3956 98.0698 16.3422 97.9632 16.3067C97.8565 16.2533 97.741 16.1911 97.6165 16.12C97.4387 16.0133 97.2254 15.9067 96.9765 15.8C96.9054 15.7111 96.8165 15.64 96.7098 15.5867C96.621 15.5156 96.5498 15.4444 96.4965 15.3733C96.2476 15.0889 96.1232 14.8044 96.1232 14.52C96.1232 13.6133 96.5765 13 97.4832 12.68C97.7321 12.6089 97.981 12.5733 98.2298 12.5733H98.7365C98.8432 12.5733 98.9321 12.5911 99.0032 12.6267L99.5365 12.68C99.6254 12.68 99.741 12.7156 99.8832 12.7867Z" fill="black"/>
<path d="M3.36 14.4933C3.80444 14.4933 4.11556 14.4489 4.29333 14.36C4.77333 14.36 5.10222 14.1733 5.28 13.8C5.33333 13.6933 5.40444 13.56 5.49333 13.4C5.65333 13.1156 5.68889 12.7422 5.6 12.28C5.56444 12.1378 5.51111 12.0222 5.44 11.9333C5.38667 11.6844 5.26222 11.4889 5.06667 11.3467C4.96 11.2933 4.84444 11.24 4.72 11.1867C4.61333 11.1156 4.48889 11.0533 4.34667 11C4.15111 10.9467 3.80444 10.92 3.30667 10.92H2.74667V14.4933H3.36ZM8.45333 19.0533C8.41778 19.0533 8.39111 19.08 8.37333 19.1333C8.28444 19.1333 8.22222 19.1511 8.18667 19.1867C8.06222 19.1867 7.96444 19.2044 7.89333 19.24H7.62667C6.91556 19.24 6.40889 19.0267 6.10667 18.6C5.92889 18.4578 5.81333 18.2444 5.76 17.96C5.68889 17.8533 5.63556 17.7289 5.6 17.5867C5.58222 17.4444 5.55556 17.3111 5.52 17.1867C5.32444 16.4578 5.11111 15.9778 4.88 15.7467C4.75556 15.6222 4.56 15.4711 4.29333 15.2933C3.95556 15.1689 3.62667 15.1067 3.30667 15.1067H2.88C2.84444 15.16 2.81778 15.1867 2.8 15.1867H2.74667V18.12C2.74667 18.2089 2.75556 18.2711 2.77333 18.3067C2.80889 18.3422 2.88889 18.36 3.01333 18.36L3.70667 18.44V19H0.4V18.44L1.12 18.36C1.22667 18.36 1.29778 18.3422 1.33333 18.3067C1.36889 18.2711 1.38667 18.2089 1.38667 18.12V11.0533C1.38667 11.0178 1.36889 11 1.33333 11C1.24444 10.9289 1.17333 10.8933 1.12 10.8933L0.4 10.8133V10.2267H3.81333C4.77333 10.2267 5.57333 10.4044 6.21333 10.76C6.46222 10.9733 6.67556 11.2311 6.85333 11.5333C6.96 11.7822 7.01333 12.1022 7.01333 12.4933C7.01333 13.1511 6.8 13.6933 6.37333 14.12C6.21333 14.28 5.97333 14.4222 5.65333 14.5467C5.45778 14.6533 5.2 14.7244 4.88 14.76C5.09333 14.8133 5.26222 14.8756 5.38667 14.9467C5.51111 15 5.63556 15.0533 5.76 15.1067C5.83111 15.1956 5.91111 15.2844 6 15.3733C6.08889 15.4622 6.17778 15.5511 6.26667 15.64C6.30222 15.7644 6.33778 15.8711 6.37333 15.96C6.40889 16.0311 6.44444 16.12 6.48 16.2267C6.53333 16.3333 6.56889 16.4489 6.58667 16.5733C6.60444 16.68 6.63111 16.7867 6.66667 16.8933C6.70222 17 6.72 17.1067 6.72 17.2133C6.72 17.32 6.73778 17.4178 6.77333 17.5067C6.86222 17.6667 6.96 17.8356 7.06667 18.0133C7.28 18.1733 7.46667 18.2889 7.62667 18.36C7.87556 18.4311 8.15111 18.4667 8.45333 18.4667V19.0533ZM15.6895 18.36C15.4229 18.5733 15.1829 18.7156 14.9695 18.7867C14.7562 18.8578 14.5962 18.9111 14.4895 18.9467C14.3829 18.9822 14.2851 19.0089 14.1962 19.0267C14.1073 19.0622 14.0006 19.0978 13.8762 19.1333C13.7695 19.1689 13.6629 19.1867 13.5562 19.1867H13.1829C12.7562 19.1867 12.4184 19.1333 12.1695 19.0267C11.494 18.7422 11.014 18.3778 10.7295 17.9333C10.6406 17.7733 10.5251 17.5333 10.3829 17.2133C10.2406 16.8933 10.1695 16.5378 10.1695 16.1467C10.1695 15.5956 10.2495 15.0622 10.4095 14.5467C10.5873 14.1556 10.8006 13.8 11.0495 13.48C11.3518 13.1956 11.6806 12.9644 12.0362 12.7867C12.5518 12.6444 12.934 12.5733 13.1829 12.5733C13.5562 12.5733 13.9562 12.6267 14.3829 12.7333C14.6495 12.9289 14.8984 13.1333 15.1295 13.3467C15.2895 13.5778 15.4406 13.8533 15.5829 14.1733C15.654 14.4578 15.6895 14.8133 15.6895 15.24V15.64H11.4495C11.4495 15.9067 11.494 16.2356 11.5829 16.6267C11.6362 16.7511 11.6806 16.8933 11.7162 17.0533C11.7695 17.1956 11.8318 17.3467 11.9029 17.5067C12.3118 18.0756 12.8984 18.36 13.6629 18.36H13.9295C14.1251 18.36 14.4006 18.28 14.7562 18.12C14.8273 18.0667 14.9073 18.0222 14.9962 17.9867C15.0851 17.9511 15.1562 17.9067 15.2095 17.8533C15.4406 17.7467 15.6006 17.6489 15.6895 17.56V18.36ZM14.4095 14.76C14.4095 14.6356 14.3918 14.5289 14.3562 14.44C14.3384 14.3511 14.3118 14.2533 14.2762 14.1467C14.1695 13.8267 14.054 13.6222 13.9295 13.5333C13.8229 13.4444 13.734 13.3822 13.6629 13.3467C13.5918 13.2756 13.414 13.24 13.1295 13.24C12.5962 13.24 12.2318 13.4 12.0362 13.72C11.9473 13.7911 11.8851 13.88 11.8495 13.9867C11.814 14.0756 11.7518 14.1822 11.6629 14.3067C11.6451 14.4667 11.5918 14.7156 11.5029 15.0533H14.4095V14.76ZM21.4301 15.5067C20.8256 15.6667 20.3812 15.8267 20.0967 15.9867C19.8834 16.04 19.7145 16.1111 19.5901 16.2C19.4656 16.2711 19.3589 16.3333 19.2701 16.3867C18.9678 16.76 18.8167 17.0711 18.8167 17.32C18.8167 17.3911 18.8434 17.4978 18.8967 17.64C18.9678 17.7644 19.0034 17.8622 19.0034 17.9333C19.0212 17.9867 19.0478 18.0311 19.0834 18.0667C19.1545 18.1022 19.2078 18.1467 19.2434 18.2C19.2967 18.2356 19.3501 18.2711 19.4034 18.3067C19.4745 18.3422 19.5545 18.36 19.6434 18.36C19.8034 18.36 19.9456 18.36 20.0701 18.36C20.2478 18.36 20.4078 18.3244 20.5501 18.2533C20.6923 18.1644 20.8167 18.1022 20.9234 18.0667C21.0301 18.0311 21.1189 17.9956 21.1901 17.96C21.2612 17.9067 21.3412 17.8533 21.4301 17.8V15.5067ZM22.5767 13.72L22.6567 14.5467V18.12C22.6567 18.1556 22.6745 18.2178 22.7101 18.3067C22.7634 18.3956 22.8434 18.4489 22.9501 18.4667H23.5634V19H21.5901L21.4301 18.2533C21.1812 18.4489 20.9412 18.6 20.7101 18.7067C20.6745 18.76 20.6212 18.7956 20.5501 18.8133C20.4967 18.8311 20.4434 18.8578 20.3901 18.8933C20.2656 18.9644 20.1412 19 20.0167 19C19.8389 19.0889 19.7056 19.1333 19.6167 19.1333C19.5456 19.1689 19.4212 19.1867 19.2434 19.1867C19.0656 19.1867 18.8878 19.16 18.7101 19.1067C18.1767 18.9111 17.8389 18.5822 17.6967 18.12C17.5901 17.9067 17.5367 17.72 17.5367 17.56V17.1867C17.5367 17.1156 17.5545 17.0356 17.5901 16.9467C17.6434 16.84 17.7056 16.6978 17.7767 16.52C17.9189 16.3422 18.0523 16.2267 18.1767 16.1733C18.2834 16.1022 18.3901 16.0311 18.4967 15.96C18.6034 15.8889 18.7367 15.8267 18.8967 15.7733C19.0745 15.7022 19.2434 15.64 19.4034 15.5867C19.5812 15.5156 19.7678 15.4622 19.9634 15.4267C20.1767 15.3378 20.3989 15.2667 20.6301 15.2133C20.8612 15.16 21.1278 15.0889 21.4301 15V14.4933C21.4301 14.0133 21.3323 13.6756 21.1367 13.48C20.8701 13.2844 20.6123 13.1867 20.3634 13.1867H19.9101C19.8034 13.1867 19.6434 13.2133 19.4301 13.2667C19.3767 13.3022 19.3234 13.3289 19.2701 13.3467V14.4933H18.1767L18.0167 14.3867C18.0167 14.3689 17.9989 14.36 17.9634 14.36C17.9456 14.36 17.9189 14.3422 17.8834 14.3067V14.12C17.8834 13.8 17.9634 13.5689 18.1234 13.4267C18.2123 13.3022 18.3101 13.2044 18.4167 13.1333C18.5234 13.0622 18.6389 12.9822 18.7634 12.8933C19.1901 12.7156 19.5545 12.6178 19.8567 12.6C20.1767 12.5822 20.4345 12.5733 20.6301 12.5733C21.3589 12.5733 21.8923 12.7422 22.2301 13.08C22.3545 13.2578 22.4701 13.4711 22.5767 13.72ZM25.0264 18.4667H25.7197C25.773 18.4667 25.8352 18.4311 25.9064 18.36C25.9775 18.2711 26.013 18.2178 26.013 18.2V10.36H25.0264V9.88L26.6264 9.4H27.2397V18.2C27.2397 18.3067 27.2752 18.3689 27.3464 18.3867L27.4797 18.4667H28.2264V19H25.0264V18.4667ZM36.0359 11.1067C36.0359 11.0356 36.027 10.9733 36.0092 10.92C35.9737 10.92 35.9559 10.92 35.9559 10.92C35.9559 10.9022 35.9292 10.8933 35.8759 10.8933H33.9559V18.12C33.9559 18.1556 33.9737 18.1911 34.0092 18.2267C34.0448 18.2444 34.0626 18.2711 34.0626 18.3067C34.0803 18.3422 34.1514 18.36 34.2759 18.36L35.1026 18.44V19H31.5292V18.44L32.4092 18.36C32.5159 18.36 32.5692 18.3422 32.5692 18.3067C32.6581 18.2533 32.7026 18.1911 32.7026 18.12V10.8933H30.7826C30.747 10.8933 30.7292 10.9022 30.7292 10.92C30.7292 10.92 30.7026 10.92 30.6492 10.92C30.6137 10.9733 30.5959 11.0356 30.5959 11.1067L30.4359 12.3067H29.6626V10.2267H37.0759V12.3067H36.3026L36.0359 11.1067ZM41.0561 18.12C41.0561 18.2978 41.145 18.4133 41.3228 18.4667H42.0428V19H38.8961L38.9494 18.4667H39.6161C39.6339 18.4489 39.6516 18.44 39.6694 18.44C39.6872 18.4222 39.7228 18.3956 39.7761 18.36C39.8116 18.3244 39.8294 18.2444 39.8294 18.12V13.56H38.9494V13.08L40.5761 12.5733H41.0561V18.12ZM39.8294 10.2267L39.9361 10.0133C40.0783 9.96 40.1761 9.90667 40.2294 9.85333C40.3361 9.8 40.4339 9.77333 40.5228 9.77333C40.7539 9.77333 40.9494 9.85333 41.1094 10.0133C41.1628 10.0311 41.1983 10.0667 41.2161 10.12C41.2339 10.1556 41.2605 10.1911 41.2961 10.2267C41.3139 10.3156 41.3228 10.44 41.3228 10.6L41.2961 10.8933C41.2605 10.9467 41.225 10.9911 41.1894 11.0267C41.1539 11.0622 41.1272 11.1067 41.1094 11.16C41.0205 11.2489 40.9405 11.2933 40.8694 11.2933C40.745 11.3467 40.6294 11.3733 40.5228 11.3733C40.4161 11.3733 40.2205 11.3022 39.9361 11.16L39.8294 10.8933C39.7939 10.8222 39.7761 10.7511 39.7761 10.68V10.4133C39.7761 10.36 39.7939 10.2978 39.8294 10.2267ZM44.2666 18.36C44.3377 18.36 44.3732 18.3067 44.3732 18.2V13.64H43.4399V13.1867L45.0932 12.7333H45.5999V13.3733C45.6888 13.3556 45.8399 13.2578 46.0532 13.08C46.1421 13.0444 46.231 13.0089 46.3199 12.9733C46.4088 12.92 46.4977 12.8844 46.5866 12.8667C46.9243 12.6711 47.1821 12.5733 47.3599 12.5733C47.5732 12.5733 47.751 12.5733 47.8932 12.5733C48.0532 12.5733 48.1866 12.5911 48.2932 12.6267C48.3288 12.6622 48.3821 12.6889 48.4532 12.7067C48.7199 12.8311 48.9332 13.0267 49.0932 13.2933C49.1288 13.3644 49.1466 13.4267 49.1466 13.48C49.2177 13.4267 49.2977 13.3911 49.3866 13.3733C49.4932 13.3378 49.5821 13.2756 49.6532 13.1867C49.7421 13.1511 49.831 13.1067 49.9199 13.0533C50.0266 13 50.1243 12.9467 50.2132 12.8933C50.4799 12.7511 50.7021 12.68 50.8799 12.68C50.9688 12.6089 51.0666 12.5733 51.1732 12.5733H51.4666C51.751 12.5733 52.0177 12.6267 52.2666 12.7333C52.391 12.8222 52.4977 12.9022 52.5866 12.9733C52.6755 13.0267 52.7466 13.1067 52.7999 13.2133C52.871 13.32 52.9243 13.4267 52.9599 13.5333C52.9955 13.64 53.0399 13.7644 53.0932 13.9067C53.1288 14.1556 53.1466 14.3778 53.1466 14.5733V18.12C53.1466 18.28 53.2266 18.3956 53.3866 18.4667H54.0266V19H51.1199L51.0666 18.5467L51.6266 18.4667C51.6977 18.4667 51.7599 18.4311 51.8132 18.36C51.8488 18.36 51.8666 18.3422 51.8666 18.3067V14.5733C51.8666 14.4844 51.8488 14.3956 51.8132 14.3067C51.8132 14.2178 51.7866 14.1467 51.7332 14.0933C51.6977 14.0222 51.6621 13.9511 51.6266 13.88C51.5021 13.6667 51.2977 13.56 51.0132 13.56H50.3732L49.9999 13.6133C49.8577 13.6844 49.7421 13.72 49.6532 13.72C49.5466 13.7733 49.4399 13.8356 49.3332 13.9067V18.2C49.3332 18.2533 49.3688 18.3067 49.4399 18.36C49.4932 18.4311 49.5466 18.4667 49.5999 18.4667H50.1866V19H47.2799V18.4667H47.8666C47.9021 18.4667 47.9466 18.44 47.9999 18.3867C48.071 18.3333 48.1066 18.2711 48.1066 18.2V14.52C48.1066 14.4311 48.0888 14.3422 48.0532 14.2533C48.0532 14.0933 47.991 13.9511 47.8666 13.8267C47.8488 13.7556 47.7599 13.6933 47.5999 13.64C47.4577 13.5867 47.3421 13.56 47.2532 13.56C47.0221 13.56 46.8532 13.56 46.7466 13.56C46.3199 13.56 46.0266 13.64 45.8666 13.8C45.7599 13.8 45.671 13.8356 45.5999 13.9067V18.3067C45.5999 18.3422 45.6177 18.36 45.6532 18.36C45.7421 18.4311 45.8132 18.4667 45.8666 18.4667L46.4266 18.5467V19H43.4399V18.5467L44.1066 18.4667C44.2132 18.4667 44.2666 18.4311 44.2666 18.36ZM61.045 18.36C60.7783 18.5733 60.5383 18.7156 60.325 18.7867C60.1117 18.8578 59.9517 18.9111 59.845 18.9467C59.7383 18.9822 59.6406 19.0089 59.5517 19.0267C59.4628 19.0622 59.3561 19.0978 59.2317 19.1333C59.125 19.1689 59.0183 19.1867 58.9117 19.1867H58.5383C58.1117 19.1867 57.7739 19.1333 57.525 19.0267C56.8494 18.7422 56.3694 18.3778 56.085 17.9333C55.9961 17.7733 55.8806 17.5333 55.7383 17.2133C55.5961 16.8933 55.525 16.5378 55.525 16.1467C55.525 15.5956 55.605 15.0622 55.765 14.5467C55.9428 14.1556 56.1561 13.8 56.405 13.48C56.7072 13.1956 57.0361 12.9644 57.3917 12.7867C57.9072 12.6444 58.2894 12.5733 58.5383 12.5733C58.9117 12.5733 59.3117 12.6267 59.7383 12.7333C60.005 12.9289 60.2539 13.1333 60.485 13.3467C60.645 13.5778 60.7961 13.8533 60.9383 14.1733C61.0094 14.4578 61.045 14.8133 61.045 15.24V15.64H56.805C56.805 15.9067 56.8494 16.2356 56.9383 16.6267C56.9917 16.7511 57.0361 16.8933 57.0717 17.0533C57.125 17.1956 57.1872 17.3467 57.2583 17.5067C57.6672 18.0756 58.2539 18.36 59.0183 18.36H59.285C59.4806 18.36 59.7561 18.28 60.1117 18.12C60.1828 18.0667 60.2628 18.0222 60.3517 17.9867C60.4406 17.9511 60.5117 17.9067 60.565 17.8533C60.7961 17.7467 60.9561 17.6489 61.045 17.56V18.36ZM59.765 14.76C59.765 14.6356 59.7472 14.5289 59.7117 14.44C59.6939 14.3511 59.6672 14.2533 59.6317 14.1467C59.525 13.8267 59.4094 13.6222 59.285 13.5333C59.1783 13.4444 59.0894 13.3822 59.0183 13.3467C58.9472 13.2756 58.7694 13.24 58.485 13.24C57.9517 13.24 57.5872 13.4 57.3917 13.72C57.3028 13.7911 57.2406 13.88 57.205 13.9867C57.1694 14.0756 57.1072 14.1822 57.0183 14.3067C57.0006 14.4667 56.9472 14.7156 56.8583 15.0533H59.765V14.76Z" fill="#8A0909"/>
</svg>
