<svg width="62" height="62" viewBox="0 0 62 62" fill="none" xmlns="http://www.w3.org/2000/svg">
<g filter="url(#filter0_i_2_14)">
<rect x="1" y="1" width="60" height="60" rx="10" fill="#1E1E1E"/>
</g>
<rect x="0.75" y="0.75" width="60.5" height="60.5" rx="10.25" stroke="#4B4B4B" stroke-width="0.5"/>
<path d="M16.78 22V13.33H19.045V14.2C19.355 13.89 19.68 13.645 20.02 13.465C20.37 13.275 20.74 13.18 21.13 13.18C21.49 13.18 21.78 13.27 22 13.45C22.23 13.63 22.4 13.87 22.51 14.17C22.62 14.46 22.675 14.79 22.675 15.16V22H20.425V15.535C20.425 15.295 20.385 15.115 20.305 14.995C20.235 14.875 20.095 14.815 19.885 14.815C19.765 14.815 19.63 14.85 19.48 14.92C19.34 14.98 19.195 15.065 19.045 15.175V22H16.78ZM26.9075 22.15C26.2675 22.15 25.7325 22.035 25.3025 21.805C24.8725 21.565 24.5475 21.22 24.3275 20.77C24.1075 20.31 23.9975 19.76 23.9975 19.12V16.21C23.9975 15.55 24.1075 15 24.3275 14.56C24.5475 14.11 24.8775 13.77 25.3175 13.54C25.7575 13.3 26.2875 13.18 26.9075 13.18C27.5675 13.18 28.1025 13.3 28.5125 13.54C28.9225 13.78 29.2225 14.13 29.4125 14.59C29.6125 15.05 29.7125 15.61 29.7125 16.27V17.785H26.2325V19.465C26.2325 19.715 26.2575 19.92 26.3075 20.08C26.3675 20.24 26.4475 20.355 26.5475 20.425C26.6475 20.485 26.7725 20.515 26.9225 20.515C27.0625 20.515 27.1825 20.485 27.2825 20.425C27.3925 20.355 27.4725 20.25 27.5225 20.11C27.5725 19.97 27.5975 19.785 27.5975 19.555V18.73H29.6975V19.45C29.6975 20.33 29.4575 21 28.9775 21.46C28.4975 21.92 27.8075 22.15 26.9075 22.15ZM26.2325 16.705H27.5975V15.85C27.5975 15.6 27.5725 15.4 27.5225 15.25C27.4725 15.09 27.3925 14.98 27.2825 14.92C27.1825 14.85 27.0525 14.815 26.8925 14.815C26.7425 14.815 26.6175 14.85 26.5175 14.92C26.4275 14.99 26.3575 15.115 26.3075 15.295C26.2575 15.465 26.2325 15.71 26.2325 16.03V16.705ZM31.9319 22L30.6269 13.33H32.5169L33.2069 18.565L33.9869 13.33H35.6369L36.3419 18.655L37.1219 13.33H38.8919L37.5569 22H35.6219L34.7819 16.855L33.8669 22H31.9319ZM42.5178 22.15C41.7678 22.15 41.1478 21.97 40.6578 21.61C40.1778 21.24 39.8028 20.675 39.5328 19.915L41.1228 19.255C41.2728 19.675 41.4528 20.005 41.6628 20.245C41.8728 20.475 42.1178 20.59 42.3978 20.59C42.6078 20.59 42.7628 20.545 42.8628 20.455C42.9728 20.355 43.0278 20.22 43.0278 20.05C43.0278 19.81 42.9478 19.595 42.7878 19.405C42.6278 19.215 42.3428 18.95 41.9328 18.61L41.1228 17.92C40.7028 17.56 40.3628 17.205 40.1028 16.855C39.8528 16.495 39.7278 16.05 39.7278 15.52C39.7278 15.05 39.8428 14.64 40.0728 14.29C40.3128 13.94 40.6278 13.67 41.0178 13.48C41.4178 13.28 41.8478 13.18 42.3078 13.18C43.0178 13.18 43.5978 13.385 44.0478 13.795C44.5078 14.195 44.8178 14.74 44.9778 15.43L43.5078 16.09C43.4478 15.87 43.3678 15.665 43.2678 15.475C43.1678 15.275 43.0378 15.11 42.8778 14.98C42.7278 14.85 42.5578 14.785 42.3678 14.785C42.1878 14.785 42.0428 14.84 41.9328 14.95C41.8228 15.06 41.7678 15.2 41.7678 15.37C41.7678 15.55 41.8578 15.74 42.0378 15.94C42.2278 16.14 42.4878 16.38 42.8178 16.66L43.6278 17.38C43.8678 17.59 44.1028 17.815 44.3328 18.055C44.5628 18.285 44.7528 18.545 44.9028 18.835C45.0528 19.115 45.1278 19.44 45.1278 19.81C45.1278 20.31 45.0078 20.735 44.7678 21.085C44.5278 21.435 44.2078 21.7 43.8078 21.88C43.4178 22.06 42.9878 22.15 42.5178 22.15Z" fill="white"/>
<path d="M16.83 49V24.7H23.13C24.77 24.7 26.17 24.89 27.33 25.27C28.51 25.63 29.41 26.28 30.03 27.22C30.67 28.16 30.99 29.46 30.99 31.12C30.99 32.12 30.9 33.01 30.72 33.79C30.56 34.55 30.26 35.22 29.82 35.8C29.4 36.36 28.8 36.81 28.02 37.15L31.38 49H26.31L23.52 37.99H21.78V49H16.83ZM21.78 35.05H23.22C24.02 35.05 24.65 34.92 25.11 34.66C25.57 34.4 25.89 34.01 26.07 33.49C26.27 32.95 26.37 32.29 26.37 31.51C26.37 30.39 26.16 29.54 25.74 28.96C25.34 28.36 24.58 28.06 23.46 28.06H21.78V35.05ZM36.4245 49V28.39H32.6745V24.7H45.0945V28.39H41.4045V49H36.4245Z" fill="#8A0909"/>
<ellipse cx="47.7586" cy="45.8571" rx="2.75862" ry="2.85714" fill="white"/>
<defs>
<filter id="filter0_i_2_14" x="0.5" y="0.5" width="65" height="65" filterUnits="userSpaceOnUse" color-interpolation-filters="sRGB">
<feFlood flood-opacity="0" result="BackgroundImageFix"/>
<feBlend mode="normal" in="SourceGraphic" in2="BackgroundImageFix" result="shape"/>
<feColorMatrix in="SourceAlpha" type="matrix" values="0 0 0 0 0 0 0 0 0 0 0 0 0 0 0 0 0 0 127 0" result="hardAlpha"/>
<feOffset dx="4" dy="4"/>
<feGaussianBlur stdDeviation="5"/>
<feComposite in2="hardAlpha" operator="arithmetic" k2="-1" k3="1"/>
<feColorMatrix type="matrix" values="0 0 0 0 0 0 0 0 0 0 0 0 0 0 0 0 0 0 0.1 0"/>
<feBlend mode="normal" in2="shape" result="effect1_innerShadow_2_14"/>
</filter>
</defs>
</svg>
